<svg xmlns="http://www.w3.org/2000/svg" id="svg" width="400" height="174.2635658914729"
     viewBox="0, 0, 400,174.2635658914729" version="1.1">
  <g id="svgg">
    <path id="path0"
          d="M284.322 18.125 C 284.156 18.559,284.093 42.207,284.181 70.675 L 284.341 122.435 294.264 122.342 C 299.721 122.291,304.674 122.231,305.271 122.210 C 306.293 122.173,306.358 119.821,306.379 82.016 L 306.401 41.860 307.963 43.721 C 318.444 56.205,326.202 78.144,326.202 95.302 C 326.202 96.171,330.514 96.524,330.576 95.659 C 332.129 73.716,338.233 56.147,348.513 44.031 L 350.354 41.860 350.371 82.016 C 350.380 104.101,350.597 122.183,350.853 122.198 C 355.550 122.477,371.631 122.456,372.092 122.171 C 372.510 121.913,372.667 104.300,372.562 69.548 L 372.403 17.313 366.570 21.290 C 348.704 33.473,336.294 49.585,330.368 68.290 L 328.465 74.298 326.205 67.692 C 319.499 48.091,307.296 32.639,288.513 19.961 C 285.836 18.155,284.529 17.582,284.322 18.125 M27.841 19.616 C 27.213 20.370,27.327 121.178,27.956 121.806 C 28.381 122.231,95.458 122.734,96.589 122.321 C 97.598 121.952,97.598 118.046,96.589 117.684 C 96.163 117.532,85.628 117.483,73.178 117.575 L 50.543 117.744 50.233 68.329 L 49.922 18.915 39.173 18.915 C 31.939 18.915,28.233 19.144,27.841 19.616 M153.488 19.629 C 86.661 29.858,94.172 121.531,161.860 121.810 C 174.058 121.860,188.527 118.461,188.527 115.546 C 188.527 112.089,186.977 111.705,181.697 113.850 C 171.482 118.001,156.608 118.447,145.426 114.937 C 142.249 113.939,131.519 108.591,131.415 107.952 C 131.227 106.811,131.152 34.865,131.337 34.058 C 131.611 32.868,136.729 29.859,142.206 27.667 C 154.058 22.926,170.315 22.920,181.963 27.653 C 186.919 29.667,188.559 29.236,188.517 25.932 C 188.470 22.360,164.191 17.991,153.488 19.629 M226.667 20.356 C 212.910 24.478,203.080 34.195,199.265 47.442 C 198.108 51.461,197.159 122.138,198.262 122.197 C 198.536 122.212,203.504 122.271,209.302 122.329 L 219.845 122.433 220.155 108.089 C 220.514 91.490,220.100 92.559,225.530 94.196 C 227.861 94.898,230.818 95.632,232.102 95.828 C 233.983 96.115,234.931 96.811,236.980 99.410 C 261.772 130.865,303.578 153.375,342.016 155.965 C 344.744 156.149,348.985 156.445,351.439 156.622 C 356.198 156.966,357.307 156.346,356.865 153.587 C 356.614 152.021,356.921 152.115,350.698 151.687 C 347.628 151.475,343.442 151.148,341.395 150.960 C 308.395 147.922,275.029 131.940,251.355 107.831 C 241.421 97.714,239.991 95.526,243.292 95.489 C 254.135 95.367,269.090 82.251,273.215 69.245 C 282.290 40.630,254.925 11.889,226.667 20.356 M248.314 26.078 C 278.715 37.453,276.892 80.880,245.624 90.163 C 239.844 91.879,237.316 91.558,235.167 88.837 C 232.631 85.626,226.748 75.847,223.320 69.147 L 220.465 63.566 220.465 45.587 L 220.465 27.608 224.496 26.155 C 231.924 23.477,241.282 23.447,248.314 26.078 M228.184 87.083 C 229.291 88.693,230.085 90.122,229.947 90.259 C 229.549 90.658,225.020 89.272,222.455 87.967 L 220.105 86.771 220.228 81.370 C 220.392 74.233,220.485 74.182,223.542 79.545 C 224.987 82.082,227.076 85.474,228.184 87.083 "
          stroke="none" fill="#D18377" fill-rule="evenodd"/>
  </g>
</svg>
