<svg xmlns="http://www.w3.org/2000/svg" xmlns:xlink="http://www.w3.org/1999/xlink" id="svg" width="400" height="351.219512195122" viewBox="0, 0, 400,351.219512195122"><g id="svgg"><path id="path0" d="M198.058 20.757 C 193.963 21.855,60.784 81.959,59.160 83.441 C 52.155 89.834,56.056 96.389,70.636 102.722 C 79.904 106.748,137.399 132.036,177.793 149.853 C 194.640 157.284,199.601 159.176,201.433 158.869 C 207.701 157.821,341.013 97.227,342.753 94.636 C 346.188 89.520,344.245 83.274,338.360 80.508 C 336.558 79.662,320.732 72.647,303.189 64.921 C 285.647 57.194,257.111 44.623,239.775 36.985 C 199.225 19.118,201.240 19.903,198.058 20.757 M231.520 49.141 C 248.030 56.421,275.047 68.302,291.557 75.543 C 308.068 82.785,321.809 88.928,322.093 89.196 C 322.378 89.463,295.135 101.927,261.553 116.893 L 200.496 144.105 167.602 129.603 C 149.511 121.627,122.129 109.558,106.754 102.783 C 91.379 96.009,78.799 90.266,78.799 90.022 C 78.799 89.352,199.884 35.378,200.750 35.661 C 201.163 35.796,215.009 41.862,231.520 49.141 M312.195 127.978 C 295.478 135.196,276.398 143.452,269.794 146.325 C 263.189 149.197,247.992 155.779,236.023 160.952 C 212.405 171.157,211.175 171.830,209.141 175.663 C 207.468 178.816,207.943 320.563,209.639 324.175 C 210.802 326.653,215.105 329.456,217.745 329.456 C 219.459 329.456,311.044 290.476,344.428 275.537 C 356.456 270.155,355.182 279.884,355.022 194.642 C 354.879 118.427,354.954 119.955,351.227 116.819 C 346.898 113.177,345.643 113.535,312.195 127.978 M51.604 116.747 C 47.073 119.206,47.280 115.492,47.280 194.358 C 47.280 272.513,47.154 270.078,51.325 272.811 C 52.380 273.502,64.144 278.723,77.466 284.413 C 194.429 334.366,184.786 330.570,189.089 328.345 C 194.826 325.378,194.371 332.047,194.371 250.907 C 194.371 172.657,194.508 175.346,190.362 172.085 C 189.296 171.246,181.910 167.782,173.949 164.387 C 165.988 160.992,138.874 149.436,113.696 138.708 C 88.518 127.979,66.104 118.385,63.887 117.387 C 59.331 115.336,54.654 115.092,51.604 116.747 M340.713 196.572 L 340.713 261.813 339.024 262.347 C 338.096 262.641,330.413 265.887,321.951 269.560 C 313.490 273.233,302.345 278.072,297.186 280.311 C 256.289 298.065,223.362 312.168,223.197 312.002 C 222.614 311.420,222.751 182.960,223.335 182.423 C 223.709 182.080,248.837 171.083,279.174 157.987 C 309.512 144.891,335.685 133.565,337.336 132.817 C 338.987 132.070,340.422 131.430,340.525 131.395 C 340.629 131.361,340.713 160.690,340.713 196.572 " stroke="none" fill="#a6cfcc" fill-rule="evenodd"/></g></svg>